<mxfile host="app.diagrams.net" modified="2021-08-25T01:47:42.350Z" agent="5.0 (X11; Linux x86_64) AppleWebKit/537.36 (KHTML, like Gecko) Chrome/91.0.4472.106 Safari/537.36" etag="MOcSjUyucqFqCNISdBnR" version="14.9.8" type="github">
  <diagram id="2f404044-711c-603c-8f00-f6bb4c023d3c" name="Page-1">
    <mxGraphModel dx="1292" dy="707" grid="1" gridSize="10" guides="1" tooltips="1" connect="1" arrows="1" fold="1" page="1" pageScale="1" pageWidth="1169" pageHeight="827" background="#F1FAEE" math="0" shadow="0">
      <root>
        <mxCell id="0" />
        <mxCell id="1" parent="0" />
        <mxCell id="Zr7D2rKsstM-vyZC5naw-300" value="&amp;nbsp; app01" style="rounded=1;whiteSpace=wrap;html=1;fillColor=#A8DADC;strokeColor=#457B9D;fontColor=#1D3557;align=left;verticalAlign=top;" vertex="1" parent="1">
          <mxGeometry x="220" y="398" width="190" height="110" as="geometry" />
        </mxCell>
        <mxCell id="Zr7D2rKsstM-vyZC5naw-286" value="jenkins" style="shape=process;whiteSpace=wrap;html=1;backgroundOutline=1;verticalAlign=top;fillColor=#A8DADC;strokeColor=#457B9D;fontColor=#1D3557;" vertex="1" parent="1">
          <mxGeometry x="370" y="110" width="120" height="250" as="geometry" />
        </mxCell>
        <mxCell id="Zr7D2rKsstM-vyZC5naw-289" style="edgeStyle=orthogonalEdgeStyle;rounded=0;orthogonalLoop=1;jettySize=auto;html=1;exitX=1;exitY=0.5;exitDx=0;exitDy=0;entryX=0;entryY=0.5;entryDx=0;entryDy=0;labelBackgroundColor=#F1FAEE;strokeColor=#457B9D;fontColor=#1D3557;" edge="1" parent="1" source="Zr7D2rKsstM-vyZC5naw-285" target="Zr7D2rKsstM-vyZC5naw-287">
          <mxGeometry relative="1" as="geometry" />
        </mxCell>
        <mxCell id="Zr7D2rKsstM-vyZC5naw-285" value="GitLab" style="rounded=1;whiteSpace=wrap;html=1;fillColor=#A8DADC;strokeColor=#457B9D;fontColor=#1D3557;" vertex="1" parent="1">
          <mxGeometry x="241" y="150" width="70" height="40" as="geometry" />
        </mxCell>
        <mxCell id="Zr7D2rKsstM-vyZC5naw-296" style="edgeStyle=orthogonalEdgeStyle;rounded=0;orthogonalLoop=1;jettySize=auto;html=1;exitX=0.5;exitY=1;exitDx=0;exitDy=0;entryX=0.5;entryY=0;entryDx=0;entryDy=0;labelBackgroundColor=#F1FAEE;strokeColor=#457B9D;fontColor=#1D3557;" edge="1" parent="1" source="Zr7D2rKsstM-vyZC5naw-287" target="Zr7D2rKsstM-vyZC5naw-290">
          <mxGeometry relative="1" as="geometry" />
        </mxCell>
        <mxCell id="Zr7D2rKsstM-vyZC5naw-287" value="fetch" style="rounded=0;whiteSpace=wrap;html=1;fillColor=#d5e8d4;strokeColor=#82b366;" vertex="1" parent="1">
          <mxGeometry x="405" y="155" width="50" height="30" as="geometry" />
        </mxCell>
        <mxCell id="Zr7D2rKsstM-vyZC5naw-297" style="edgeStyle=orthogonalEdgeStyle;rounded=0;orthogonalLoop=1;jettySize=auto;html=1;exitX=0.5;exitY=1;exitDx=0;exitDy=0;entryX=0.5;entryY=0;entryDx=0;entryDy=0;labelBackgroundColor=#F1FAEE;strokeColor=#457B9D;fontColor=#1D3557;" edge="1" parent="1" source="Zr7D2rKsstM-vyZC5naw-290" target="Zr7D2rKsstM-vyZC5naw-293">
          <mxGeometry relative="1" as="geometry" />
        </mxCell>
        <mxCell id="Zr7D2rKsstM-vyZC5naw-298" value="update&lt;br&gt;jar" style="edgeStyle=orthogonalEdgeStyle;rounded=0;orthogonalLoop=1;jettySize=auto;html=1;exitX=0;exitY=0.75;exitDx=0;exitDy=0;entryX=1;entryY=0.75;entryDx=0;entryDy=0;labelBackgroundColor=#F1FAEE;strokeColor=#457B9D;fontColor=#1D3557;" edge="1" parent="1" source="Zr7D2rKsstM-vyZC5naw-290" target="Zr7D2rKsstM-vyZC5naw-291">
          <mxGeometry x="0.3213" y="5" relative="1" as="geometry">
            <Array as="points">
              <mxPoint x="405" y="250" />
            </Array>
            <mxPoint as="offset" />
          </mxGeometry>
        </mxCell>
        <mxCell id="Zr7D2rKsstM-vyZC5naw-290" value="mvn&lt;br&gt;build" style="rounded=0;whiteSpace=wrap;html=1;fillColor=#d5e8d4;strokeColor=#82b366;" vertex="1" parent="1">
          <mxGeometry x="405" y="225" width="50" height="30" as="geometry" />
        </mxCell>
        <mxCell id="Zr7D2rKsstM-vyZC5naw-291" value="nexus" style="rounded=1;whiteSpace=wrap;html=1;fillColor=#A8DADC;strokeColor=#457B9D;fontColor=#1D3557;" vertex="1" parent="1">
          <mxGeometry x="241" y="220" width="70" height="40" as="geometry" />
        </mxCell>
        <mxCell id="Zr7D2rKsstM-vyZC5naw-292" style="edgeStyle=orthogonalEdgeStyle;rounded=0;orthogonalLoop=1;jettySize=auto;html=1;labelBackgroundColor=#F1FAEE;strokeColor=#457B9D;fontColor=#1D3557;exitX=1;exitY=0.25;exitDx=0;exitDy=0;" edge="1" parent="1" source="Zr7D2rKsstM-vyZC5naw-291">
          <mxGeometry relative="1" as="geometry">
            <mxPoint x="320" y="230" as="sourcePoint" />
            <mxPoint x="405" y="230" as="targetPoint" />
          </mxGeometry>
        </mxCell>
        <mxCell id="Zr7D2rKsstM-vyZC5naw-295" value="push&lt;br&gt;image" style="edgeStyle=orthogonalEdgeStyle;rounded=0;orthogonalLoop=1;jettySize=auto;html=1;exitX=0;exitY=0.5;exitDx=0;exitDy=0;entryX=1;entryY=0.5;entryDx=0;entryDy=0;labelBackgroundColor=#F1FAEE;strokeColor=#457B9D;fontColor=#1D3557;" edge="1" parent="1" source="Zr7D2rKsstM-vyZC5naw-293" target="Zr7D2rKsstM-vyZC5naw-294">
          <mxGeometry x="0.383" y="-5" relative="1" as="geometry">
            <mxPoint as="offset" />
          </mxGeometry>
        </mxCell>
        <mxCell id="Zr7D2rKsstM-vyZC5naw-293" value="docker&lt;br&gt;build" style="rounded=0;whiteSpace=wrap;html=1;fillColor=#d5e8d4;strokeColor=#82b366;" vertex="1" parent="1">
          <mxGeometry x="405" y="300" width="50" height="30" as="geometry" />
        </mxCell>
        <mxCell id="Zr7D2rKsstM-vyZC5naw-308" style="edgeStyle=orthogonalEdgeStyle;curved=0;rounded=1;orthogonalLoop=1;jettySize=auto;html=1;entryX=0.5;entryY=0;entryDx=0;entryDy=0;fontColor=#1D3557;strokeColor=#457B9D;fillColor=#A8DADC;" edge="1" parent="1" source="Zr7D2rKsstM-vyZC5naw-294" target="Zr7D2rKsstM-vyZC5naw-307">
          <mxGeometry relative="1" as="geometry" />
        </mxCell>
        <mxCell id="Zr7D2rKsstM-vyZC5naw-294" value="harbor" style="rounded=1;whiteSpace=wrap;html=1;fillColor=#A8DADC;strokeColor=#457B9D;fontColor=#1D3557;" vertex="1" parent="1">
          <mxGeometry x="241" y="295" width="70" height="40" as="geometry" />
        </mxCell>
        <mxCell id="Zr7D2rKsstM-vyZC5naw-301" value="docker" style="ellipse;whiteSpace=wrap;html=1;rounded=0;strokeColor=#d6b656;fillColor=#fff2cc;align=center;verticalAlign=middle;" vertex="1" parent="1">
          <mxGeometry x="256" y="468" width="40" height="22.5" as="geometry" />
        </mxCell>
        <mxCell id="Zr7D2rKsstM-vyZC5naw-302" value="maven" style="ellipse;whiteSpace=wrap;html=1;rounded=0;strokeColor=#d6b656;fillColor=#fff2cc;align=center;verticalAlign=middle;" vertex="1" parent="1">
          <mxGeometry x="450" y="228.75" width="40" height="22.5" as="geometry" />
        </mxCell>
        <mxCell id="Zr7D2rKsstM-vyZC5naw-304" value="git" style="ellipse;whiteSpace=wrap;html=1;rounded=0;strokeColor=#d6b656;fillColor=#fff2cc;align=center;verticalAlign=middle;" vertex="1" parent="1">
          <mxGeometry x="450" y="158.75" width="40" height="22.5" as="geometry" />
        </mxCell>
        <mxCell id="Zr7D2rKsstM-vyZC5naw-306" value="docker" style="ellipse;whiteSpace=wrap;html=1;rounded=0;strokeColor=#d6b656;fillColor=#fff2cc;align=center;verticalAlign=middle;" vertex="1" parent="1">
          <mxGeometry x="460" y="313.75" width="40" height="22.5" as="geometry" />
        </mxCell>
        <mxCell id="Zr7D2rKsstM-vyZC5naw-307" value="pull&lt;br&gt;image" style="rounded=0;whiteSpace=wrap;html=1;fillColor=#d5e8d4;strokeColor=#82b366;" vertex="1" parent="1">
          <mxGeometry x="251" y="428" width="50" height="30" as="geometry" />
        </mxCell>
        <mxCell id="Zr7D2rKsstM-vyZC5naw-309" value="docker&lt;br&gt;run" style="rounded=0;whiteSpace=wrap;html=1;fillColor=#d5e8d4;strokeColor=#82b366;" vertex="1" parent="1">
          <mxGeometry x="330" y="428" width="50" height="30" as="geometry" />
        </mxCell>
      </root>
    </mxGraphModel>
  </diagram>
</mxfile>
